<svg width="44" height="44" viewBox="0 0 44 44" fill="none" xmlns="http://www.w3.org/2000/svg">
<path d="M36.4699 37.7489L36.4087 34.1661C36.3763 32.2657 35.5903 30.456 34.2236 29.1351C32.8568 27.8142 31.0213 27.0903 29.1209 27.1227L14.7896 27.3672C12.8892 27.3996 11.0795 28.1856 9.75858 29.5523C8.43769 30.9191 7.71383 32.7546 7.74624 34.655L7.80735 38.2378" stroke="#F5F8EC" stroke-width="3" stroke-linecap="round" stroke-linejoin="round"/>
<path d="M21.8329 20.0793C25.7904 20.0118 28.9438 16.7489 28.8763 12.7915C28.8088 8.834 25.5459 5.68056 21.5885 5.74806C17.631 5.81556 14.4776 9.07844 14.5451 13.0359C14.6126 16.9934 17.8755 20.1468 21.8329 20.0793Z" stroke="#F5F8EC" stroke-width="3" stroke-linecap="round" stroke-linejoin="round"/>
</svg>
